<svg width="20" height="20" viewBox="0 0 20 20" fill="none" xmlns="http://www.w3.org/2000/svg">
<path d="M3.71091 0C2.72789 0.00383059 1.78623 0.39603 1.09113 1.09113C0.39603 1.78623 0.00383059 2.72789 0 3.71091V16.2891C0.00383059 17.2721 0.39603 18.2138 1.09113 18.9089C1.78623 19.604 2.72789 19.9962 3.71091 20H16.2891C17.2721 19.9962 18.2138 19.604 18.9089 18.9089C19.604 18.2138 19.9962 17.2721 20 16.2891V3.71091C19.9962 2.72789 19.604 1.78623 18.9089 1.09113C18.2138 0.39603 17.2721 0.00383059 16.2891 0H3.71091ZM3.71091 1.81818H16.2891C17.3436 1.81818 18.1818 2.65636 18.1818 3.71091V16.2891C18.1818 17.3436 17.3436 18.1818 16.2891 18.1818H3.71091C3.46191 18.1834 3.21509 18.1355 2.98474 18.0409C2.7544 17.9464 2.54512 17.807 2.36905 17.631C2.19298 17.4549 2.05362 17.2456 1.95906 17.0153C1.8645 16.7849 1.81661 16.5381 1.81818 16.2891V3.71091C1.81818 2.65636 2.65636 1.81818 3.71091 1.81818Z" fill="#EBA707"/>
<path d="M13.7341 5.55742L4.87456 9.26648C4.51803 9.4392 4.39745 9.7851 4.78838 9.97282L7.06123 10.757L12.5567 7.06979C12.8568 6.83831 13.1639 6.90004 12.8996 7.15468L8.17975 11.7942L8.03149 13.7576C8.16881 14.0608 8.42026 14.0622 8.58065 13.9115L9.88647 12.5701L12.1229 14.3882C12.6423 14.7221 12.925 14.5066 13.0367 13.8947L14.5036 6.35391C14.6559 5.60071 14.3962 5.26885 13.7341 5.55742Z" fill="#EBA707"/>
</svg>
