<svg width="20" height="20" viewBox="0 0 20 20" fill="none" xmlns="http://www.w3.org/2000/svg">
<path d="M10.4236 13.684C7.18678 13.684 5.3406 11.3132 5.26367 7.36816H6.88503C6.93828 10.2637 8.13356 11.4902 9.08034 11.7431V7.36816H10.6071V9.8654C11.542 9.75792 12.5242 8.61994 12.8555 7.36816H14.3823C14.1278 8.91076 13.0627 10.0487 12.3053 10.5166C13.0627 10.8959 14.2758 11.8885 14.7374 13.684H13.0568C12.6958 12.4828 11.7965 11.5534 10.6071 11.427V13.684H10.4236Z" fill="#EBA707"/>
<path d="M3.71091 0C2.72789 0.00383059 1.78623 0.39603 1.09113 1.09113C0.39603 1.78623 0.00383059 2.72789 0 3.71091V16.2891C0.00383059 17.2721 0.39603 18.2138 1.09113 18.9089C1.78623 19.604 2.72789 19.9962 3.71091 20H16.2891C17.2721 19.9962 18.2138 19.604 18.9089 18.9089C19.604 18.2138 19.9962 17.2721 20 16.2891V3.71091C19.9962 2.72789 19.604 1.78623 18.9089 1.09113C18.2138 0.39603 17.2721 0.00383059 16.2891 0H3.71091ZM3.71091 1.81818H16.2891C17.3436 1.81818 18.1818 2.65636 18.1818 3.71091V16.2891C18.1818 17.3436 17.3436 18.1818 16.2891 18.1818H3.71091C3.46191 18.1834 3.21509 18.1355 2.98474 18.0409C2.7544 17.9464 2.54512 17.807 2.36905 17.631C2.19298 17.4549 2.05362 17.2456 1.95906 17.0153C1.8645 16.7849 1.81661 16.5381 1.81818 16.2891V3.71091C1.81818 2.65636 2.65636 1.81818 3.71091 1.81818Z" fill="#EBA707"/>
</svg>
