<svg width="60" height="60" viewBox="0 0 60 60" fill="none" xmlns="http://www.w3.org/2000/svg">
<circle cx="30" cy="30" r="30" fill="white"/>
<g clip-path="url(#clip0_1870_1393)">
<path d="M34.1667 30.7395C34.1667 32.9436 32.3733 34.737 30.169 34.737C27.9648 34.737 26.1714 32.9436 26.1714 30.7395C26.1714 28.5351 27.9648 26.7417 30.169 26.7417C30.9827 26.7417 31.7401 26.9869 32.3723 27.4061L34.0882 25.6901C33.005 24.8474 31.6446 24.3447 30.169 24.3447C26.6429 24.3447 23.7744 27.2134 23.7744 30.7395C23.7744 34.2655 26.6429 37.134 30.169 37.134C33.695 37.134 36.5637 34.2655 36.5637 30.7395C36.5637 29.2638 36.061 27.9034 35.2183 26.8202L33.5023 28.5362C33.9216 29.1683 34.1667 29.9257 34.1667 30.7395Z" fill="#EBA707"/>
<path d="M29.6041 30.1746L31.2038 28.5748C30.8904 28.4243 30.5394 28.3398 30.169 28.3398C28.8461 28.3398 27.7695 29.4164 27.7695 30.7396C27.7695 32.0627 28.8459 33.1391 30.169 33.1391C31.4922 33.1391 32.5688 32.0627 32.5688 30.7396C32.5688 30.3692 32.4843 30.0182 32.3339 29.7048L30.734 31.3045L29.6041 30.1746Z" fill="#EBA707"/>
<path d="M38.1139 23.9873L38.0632 23.9755L36.3549 25.6837C37.4837 27.0622 38.1618 28.823 38.1618 30.7395C38.1618 35.1466 34.5764 38.7321 30.1692 38.7321C25.762 38.7321 22.1767 35.1466 22.1767 30.7395C22.1767 26.3323 25.7622 22.7468 30.1692 22.7468C32.0858 22.7468 33.8465 23.4251 35.225 24.5537L36.9333 22.8454L36.9214 22.7948L36.3832 20.4915C34.57 19.388 32.4426 18.752 30.1692 18.752C23.5593 18.7517 18.1816 24.1294 18.1816 30.7395C18.1816 37.3494 23.5593 42.7271 30.1692 42.7271C36.7793 42.7271 42.157 37.3494 42.157 30.7395C42.157 28.4661 41.5209 26.3388 40.4173 24.5256L38.1139 23.9873Z" fill="#EBA707"/>
<path d="M40.9219 23.0022L45.4544 18.4697L43.1926 17.7159L42.4387 15.4541L37.9062 19.9866L38.4776 22.4308L40.9219 23.0022Z" fill="#EBA707"/>
</g>
<defs>
<clipPath id="clip0_1870_1393">
<rect width="27.2727" height="27.2727" fill="white" transform="translate(18.1816 15.4541)"/>
</clipPath>
</defs>
</svg>
