<svg width="68" height="68" viewBox="0 0 68 68" fill="none" xmlns="http://www.w3.org/2000/svg">
<g filter="url(#filter0_d_1870_1369)">
<circle cx="34" cy="30" r="30" fill="white"/>
<path d="M42.0807 19.5791H40.5543C40.1324 19.5791 39.791 19.9205 39.791 20.3423C39.791 20.7642 40.1324 21.1056 40.5543 21.1056H42.0807C42.5025 21.1056 42.8439 20.7642 42.8439 20.3423C42.8439 19.9205 42.5025 19.5791 42.0807 19.5791Z" fill="#EBA707"/>
<path d="M34.3677 16.9479L33.6045 15.4215C33.4144 15.0443 32.9575 14.8931 32.5804 15.0801C32.2032 15.2687 32.0504 15.7271 32.239 16.1042L33.0022 17.6307C33.1905 18.0063 33.6467 18.1606 34.0264 17.972C34.4034 17.7835 34.5562 17.3251 34.3677 16.9479Z" fill="#EBA707"/>
<path d="M39.3691 15.0801C38.9934 14.893 38.5336 15.0444 38.345 15.4215L37.5817 16.9479C37.3932 17.3251 37.546 17.7834 37.9231 17.972C38.3039 18.1611 38.7595 18.005 38.9472 17.6307L39.7104 16.1042C39.899 15.7271 39.7462 15.2687 39.3691 15.0801Z" fill="#EBA707"/>
<path d="M31.3951 19.5791H29.8687C29.4469 19.5791 29.1055 19.9205 29.1055 20.3423C29.1055 20.7642 29.4468 21.1056 29.8687 21.1056H31.3951C31.817 21.1056 32.1584 20.7642 32.1584 20.3423C32.1584 19.9205 31.817 19.5791 31.3951 19.5791Z" fill="#EBA707"/>
<path d="M26.8162 27.2617H23.7632C23.3418 27.2617 23 27.6034 23 28.025V40.2364C23 40.6579 23.3417 40.9996 23.7632 40.9996H26.8161C27.2376 40.9996 27.5793 40.6579 27.5793 40.2364V28.0249C27.5793 27.6034 27.2377 27.2617 26.8162 27.2617Z" fill="#EBA707"/>
<path d="M45.8811 29.2852C45.7465 28.1012 44.6405 27.2621 43.4489 27.2621H37.4986C38.0043 26.3566 38.2757 23.7956 38.2637 22.7494C38.2437 21.0176 36.8096 19.6299 35.0778 19.6299H34.4481C34.0262 19.6299 33.6848 19.9712 33.6848 20.3931C33.6848 22.158 32.9976 25.3436 31.7015 26.6398C30.8291 27.5121 30.0834 27.8282 29.1055 28.317V39.769C30.6026 40.2681 32.5036 41.0001 35.401 41.0001H40.3936C42.0387 41.0001 43.3199 39.4765 42.6824 37.8667C43.6536 37.6021 44.3698 36.7114 44.3698 35.6575C44.3698 35.3601 44.3124 35.0754 44.2089 34.8138C45.8455 34.3679 46.4479 32.3471 45.312 31.0782C45.7293 30.612 45.9594 29.9743 45.8811 29.2852Z" fill="#EBA707"/>
</g>
<defs>
<filter id="filter0_d_1870_1369" x="0" y="0" width="68" height="68" filterUnits="userSpaceOnUse" color-interpolation-filters="sRGB">
<feFlood flood-opacity="0" result="BackgroundImageFix"/>
<feColorMatrix in="SourceAlpha" type="matrix" values="0 0 0 0 0 0 0 0 0 0 0 0 0 0 0 0 0 0 127 0" result="hardAlpha"/>
<feOffset dy="4"/>
<feGaussianBlur stdDeviation="2"/>
<feComposite in2="hardAlpha" operator="out"/>
<feColorMatrix type="matrix" values="0 0 0 0 0 0 0 0 0 0 0 0 0 0 0 0 0 0 0.25 0"/>
<feBlend mode="normal" in2="BackgroundImageFix" result="effect1_dropShadow_1870_1369"/>
<feBlend mode="normal" in="SourceGraphic" in2="effect1_dropShadow_1870_1369" result="shape"/>
</filter>
</defs>
</svg>
